<svg xmlns="http://www.w3.org/2000/svg" viewBox="0 0 128 128" role="img" aria-labelledby="honua-logo-title">
  <title id="honua-logo-title">Honua logo</title>
  <g fill="none" fill-rule="evenodd">
    <path fill="#0F3452" d="M64 9c7.7 0 12.5 7.4 12.5 17.2 0 4.2-2.3 7.2-5.5 8.7H57c-3.2-1.5-5.5-4.5-5.5-8.7C51.5 16.4 56.3 9 64 9Z"/>
    <path fill="#0F3452" d="M44.8 34.9C30.2 36.7 18.4 48.2 14.3 66.7c13.7-4.2 26.3-12.3 35.3-24.2l-4.8-7.6Z"/>
    <path fill="#0F3452" d="M83.2 34.9c14.6 1.8 26.4 13.3 30.5 31.8-13.7-4.2-26.3-12.3-35.3-24.2l4.8-7.6Z"/>
    <path fill="#0F3452" d="M43.3 88.2c-11.6 5.9-18.1 17.7-15.9 31.3 12.5-5.7 21.3-15.6 26.2-29.8l-10.3-1.5Z"/>
    <path fill="#0F3452" d="M84.7 88.2c11.6 5.9 18.1 17.7 15.9 31.3-12.5-5.7-21.3-15.6-26.2-29.8l10.3-1.5Z"/>
    <path fill="#EAF7F4" d="M64 31.2c20 0 36.2 16.9 36.2 38.4 0 24.8-16.5 42.6-36.2 49.4-19.7-6.8-36.2-24.6-36.2-49.4 0-21.5 16.2-38.4 36.2-38.4Z"/>
    <path fill="#0F3452" d="M64 36.4c17.1 0 30.7 14.5 30.7 33.2 0 21.3-13.9 36.8-30.7 43.2-16.8-6.4-30.7-21.9-30.7-43.2 0-18.7 13.6-33.2 30.7-33.2Z"/>
    <path fill="#8CC56A" d="M86.7 47.4c4.9 5.8 7.8 13.5 7.8 22.2 0 21.3-13.8 36.8-30.5 43.2V93.1c10.4-4.8 19.8-12.7 27.8-23.7a50 50 0 0 0-5.1-22Z"/>
    <path fill="#62B7B0" d="M84.5 43.9a34 34 0 0 1 2.2 3.5C75.2 65.7 59.6 76.9 39.8 80.9a46 46 0 0 1-6.5-11.3c0-4.6.9-9 2.5-13a73 73 0 0 0 48.7-12.7Z"/>
    <path fill="#EAF7F4" d="M64.1 89.1c-9.2 4-18.3 5.6-27.3 4.7a43 43 0 0 1-4.4-8.6c12.2-.8 23-4.3 32.7-10.5 9.8-6.2 17.9-14.6 24.3-25.2 1.6 3.2 2.8 6.8 3.3 10.6A89 89 0 0 1 64.1 89Z"/>
    <path fill="#0F3452" d="M35.3 59.4c3.9-13.5 14.9-23 28.7-23 7.1 0 13.5 2.5 18.6 6.8-13.3 9-29.1 14.4-47.3 16.2Z"/>
  </g>
</svg>
